# xmcd
#
# Track frame offsets: 
#        150
#        13044
#        26993
#        39979
#        51706
#        64658
#        78221
#        93246
#        105278
#        118915
#        129395
#        141096
#        153379
#        163854
#
# Disc length: 2386 seconds
#
# Revision: 0
# Processed by: cddbd v1.5.2PL0 Copyright (c) Steve Scherf et al.
# Submitted via: ExactAudioCopyFreeDBPlugin 1.0
#
DISCID=b709500e
DTITLE=Ray Charles - Greatest Hits
DYEAR=1900
DGENRE=Blues
TTITLE0=I Got A Woman
TTITLE1=Come Back (Baby)
TTITLE2=Ain't That Love
TTITLE3=What Would I Do Without You
TTITLE4=Heartbreaker
TTITLE5=The Midnight Hour
TTITLE6=Drown In My Own Tears
TTITLE7=Mess Around
TTITLE8=A Fool For You
TTITLE9=Blackjack
TTITLE10=Hallelujah, I Love Her So
TTITLE11=It Should've Been Me
TTITLE12=Swanee River Rock (Talkin' Bout That River)
TTITLE13=Ray Charles ft Gladys Knight - Gerogia On My Mind
EXTD=
EXTT0=
EXTT1=
EXTT2=
EXTT3=
EXTT4=
EXTT5=
EXTT6=
EXTT7=
EXTT8=
EXTT9=
EXTT10=
EXTT11=
EXTT12=
EXTT13=
PLAYORDER=
